<svg xmlns="http://www.w3.org/2000/svg" xmlns:xlink="http://www.w3.org/1999/xlink" width="512" zoomAndPan="magnify" viewBox="0 0 384 383.999986" height="512" preserveAspectRatio="xMidYMid meet" version="1.0"><defs><clipPath id="id1"><path d="M 0 336.714844 L 384 336.714844 L 384 384 L 0 384 Z M 0 336.714844 " clip-rule="nonzero"/></clipPath></defs><g clip-path="url(#id1)"><path fill="#577461" d="M 368.945312 712.988281 L 352.578125 712.988281 L 352.578125 696.375 L 360.160156 688.699219 L 371.878906 693.40625 L 376.535156 705.304688 Z M 338.371094 676.484375 L 326.429688 681.710938 L 330.785156 670.589844 L 323.820312 663.53125 L 333.671875 663.53125 L 338.371094 652.507812 L 343.074219 663.53125 L 352.925781 663.53125 L 345.960938 670.589844 L 350.320312 681.710938 Z M 349.953125 695.296875 L 338.371094 707.023438 L 326.796875 695.296875 L 326.796875 684.417969 L 338.371094 679.351562 L 349.953125 684.417969 Z M 324.171875 692.636719 L 319.121094 687.527344 L 324.171875 685.5 Z M 324.171875 712.988281 L 307.800781 712.988281 L 300.210938 705.304688 L 304.871094 693.40625 L 316.589844 688.699219 L 324.171875 696.375 Z M 294.261719 712.988281 L 289.558594 724.011719 L 284.855469 712.988281 L 275.003906 712.988281 L 281.972656 705.9375 L 277.617188 694.808594 L 289.558594 700.035156 L 301.503906 694.808594 L 297.144531 705.9375 L 304.113281 712.988281 Z M 271.320312 712.988281 L 254.945312 712.988281 L 254.945312 696.375 L 262.527344 688.699219 L 274.246094 693.40625 L 278.90625 705.304688 Z M 240.742188 676.484375 L 228.800781 681.710938 L 233.15625 670.589844 L 226.191406 663.53125 L 236.039062 663.53125 L 240.742188 652.507812 L 245.445312 663.53125 L 255.296875 663.53125 L 248.328125 670.589844 L 252.6875 681.710938 Z M 252.320312 695.296875 L 240.742188 707.023438 L 229.164062 695.296875 L 229.164062 684.417969 L 240.742188 679.351562 L 252.320312 684.417969 Z M 226.539062 692.636719 L 221.492188 687.527344 L 226.539062 685.5 Z M 226.539062 712.988281 L 210.167969 712.988281 L 202.582031 705.304688 L 207.242188 693.40625 L 218.957031 688.699219 L 226.539062 696.375 Z M 196.628906 712.988281 L 191.929688 724.011719 L 187.226562 712.988281 L 177.375 712.988281 L 184.339844 705.9375 L 179.984375 694.808594 L 191.929688 700.035156 L 203.871094 694.808594 L 199.515625 705.9375 L 206.480469 712.988281 Z M 173.683594 712.988281 L 157.316406 712.988281 L 157.316406 696.375 L 164.894531 688.699219 L 176.617188 693.40625 L 181.273438 705.304688 Z M 143.113281 676.484375 L 131.167969 681.710938 L 135.523438 670.589844 L 128.5625 663.53125 L 138.410156 663.53125 L 143.113281 652.507812 L 147.8125 663.53125 L 157.664062 663.53125 L 150.699219 670.589844 L 155.058594 681.710938 Z M 154.691406 695.296875 L 143.113281 707.023438 L 131.535156 695.296875 L 131.535156 684.417969 L 143.113281 679.351562 L 154.691406 684.417969 Z M 128.910156 692.636719 L 123.859375 687.527344 L 128.910156 685.5 Z M 128.910156 712.988281 L 112.539062 712.988281 L 104.953125 705.304688 L 109.609375 693.40625 L 121.328125 688.699219 L 128.910156 696.375 Z M 99 712.988281 L 94.296875 724.011719 L 89.59375 712.988281 L 79.746094 712.988281 L 86.710938 705.9375 L 82.355469 694.808594 L 94.296875 700.035156 L 106.242188 694.808594 L 101.886719 705.9375 L 108.847656 712.988281 Z M 76.054688 712.988281 L 59.6875 712.988281 L 59.6875 696.375 L 67.265625 688.699219 L 78.984375 693.40625 L 83.644531 705.304688 Z M 45.480469 676.484375 L 33.539062 681.710938 L 37.894531 670.589844 L 30.929688 663.53125 L 40.777344 663.53125 L 45.480469 652.507812 L 50.183594 663.53125 L 60.035156 663.53125 L 53.066406 670.589844 L 57.425781 681.710938 Z M 57.058594 695.296875 L 45.480469 707.023438 L 33.902344 695.296875 L 33.902344 684.417969 L 45.480469 679.351562 L 57.058594 684.417969 Z M 31.277344 692.636719 L 26.230469 687.527344 L 31.277344 685.5 Z M 31.277344 712.988281 L 14.90625 712.988281 L 7.320312 705.304688 L 11.980469 693.40625 L 23.695312 688.699219 L 31.277344 696.375 Z M 10.871094 683.882812 L 15.917969 688.996094 L 10.871094 691.019531 Z M 10.871094 663.53125 L 27.242188 663.53125 L 34.828125 671.21875 L 30.167969 683.117188 L 18.453125 687.824219 L 10.871094 680.148438 Z M 16.742188 649.164062 L 28.335938 637.417969 L 39.046875 637.417969 L 44.054688 649.164062 L 39.046875 660.90625 L 28.339844 660.90625 Z M 10.871094 634.792969 L 10.871094 618.183594 L 18.410156 610.546875 L 24.339844 612.929688 L 24.378906 612.886719 L 30.167969 615.210938 L 34.828125 627.109375 L 27.242188 634.792969 Z M 15.769531 609.484375 L 10.871094 614.445312 L 10.871094 607.519531 Z M 31.277344 605.898438 L 31.277344 612.828125 L 26.378906 610.859375 Z M 7.320312 593.234375 L 14.90625 585.550781 L 31.277344 585.550781 L 31.277344 602.160156 L 23.738281 609.800781 L 17.808594 607.417969 L 17.769531 607.457031 L 11.980469 605.132812 Z M 3.101562 582.921875 L -1.90625 571.179688 L 3.101562 559.4375 L 13.808594 559.4375 L 25.40625 571.179688 L 13.808594 582.921875 Z M 7.320312 549.128906 L 11.980469 537.226562 L 23.695312 532.523438 L 31.277344 540.199219 L 31.277344 556.8125 L 14.90625 556.8125 Z M 10.871094 527.703125 L 15.917969 532.816406 L 10.871094 534.84375 Z M 10.871094 507.355469 L 27.242188 507.355469 L 34.828125 515.039062 L 30.167969 526.9375 L 18.453125 531.644531 L 10.871094 523.96875 Z M 16.742188 492.984375 L 28.335938 481.246094 L 39.046875 481.246094 L 44.054688 492.984375 L 39.046875 504.730469 L 28.339844 504.730469 Z M 10.871094 478.617188 L 10.871094 462.003906 L 18.410156 454.367188 L 24.339844 456.75 L 24.378906 456.710938 L 30.167969 459.035156 L 34.828125 470.933594 L 27.242188 478.617188 Z M 15.769531 453.308594 L 10.871094 458.269531 L 10.871094 451.339844 Z M 31.277344 449.722656 L 31.277344 456.648438 L 26.378906 454.683594 Z M 7.320312 437.054688 L 14.90625 429.371094 L 31.277344 429.371094 L 31.277344 445.988281 L 23.738281 453.621094 L 17.808594 451.242188 L 17.769531 451.28125 L 11.980469 448.957031 Z M 3.101562 426.746094 L -1.90625 415.003906 L 3.101562 403.257812 L 13.808594 403.257812 L 25.40625 415.003906 L 13.808594 426.746094 Z M 7.320312 392.949219 L 11.980469 381.050781 L 23.695312 376.34375 L 31.277344 384.023438 L 31.277344 400.632812 L 14.90625 400.632812 Z M 10.871094 371.527344 L 15.917969 376.640625 L 10.871094 378.667969 Z M 10.871094 351.179688 L 27.242188 351.179688 L 34.828125 358.863281 L 30.167969 370.761719 L 18.453125 375.46875 L 10.871094 367.792969 Z M 40.777344 351.179688 L 45.480469 340.15625 L 50.183594 351.179688 L 60.035156 351.179688 L 53.066406 358.234375 L 57.425781 369.355469 L 45.480469 364.128906 L 33.539062 369.355469 L 37.894531 358.234375 L 30.929688 351.179688 Z M 63.722656 351.179688 L 80.09375 351.179688 L 80.09375 367.792969 L 72.515625 375.46875 L 60.792969 370.761719 L 56.136719 358.863281 Z M 94.296875 387.683594 L 106.242188 382.453125 L 101.886719 393.582031 L 108.847656 400.632812 L 99 400.632812 L 94.296875 411.65625 L 89.59375 400.632812 L 79.746094 400.632812 L 86.710938 393.582031 L 82.355469 382.453125 Z M 82.71875 368.867188 L 94.296875 357.140625 L 105.875 368.867188 L 105.875 379.75 L 94.296875 384.816406 L 82.71875 379.75 Z M 108.5 371.527344 L 113.546875 376.640625 L 108.5 378.667969 Z M 108.5 351.179688 L 124.871094 351.179688 L 132.457031 358.863281 L 127.800781 370.761719 L 116.082031 375.46875 L 108.5 367.792969 Z M 138.410156 351.179688 L 143.113281 340.15625 L 147.8125 351.179688 L 157.664062 351.179688 L 150.699219 358.234375 L 155.058594 369.355469 L 143.113281 364.128906 L 131.167969 369.355469 L 135.523438 358.234375 L 128.5625 351.179688 Z M 161.355469 351.179688 L 177.722656 351.179688 L 177.722656 367.792969 L 170.144531 375.46875 L 158.425781 370.761719 L 153.765625 358.863281 Z M 191.929688 387.683594 L 203.871094 382.453125 L 199.515625 393.582031 L 206.480469 400.632812 L 196.628906 400.632812 L 191.929688 411.65625 L 187.226562 400.632812 L 177.378906 400.632812 L 184.339844 393.582031 L 179.984375 382.453125 Z M 180.347656 368.867188 L 191.929688 357.140625 L 203.507812 368.867188 L 203.507812 379.75 L 191.929688 384.816406 L 180.347656 379.75 Z M 206.132812 371.527344 L 211.179688 376.640625 L 206.132812 378.667969 Z M 206.132812 351.179688 L 222.5 351.179688 L 230.089844 358.863281 L 225.429688 370.761719 L 213.710938 375.46875 L 206.132812 367.792969 Z M 236.039062 351.179688 L 240.742188 340.15625 L 245.445312 351.179688 L 255.296875 351.179688 L 248.328125 358.234375 L 252.6875 369.355469 L 240.742188 364.128906 L 228.800781 369.355469 L 233.15625 358.234375 L 226.191406 351.179688 Z M 258.984375 351.179688 L 275.355469 351.179688 L 275.355469 367.792969 L 267.773438 375.46875 L 256.058594 370.761719 L 251.394531 358.863281 Z M 289.558594 387.683594 L 301.503906 382.453125 L 297.144531 393.582031 L 304.109375 400.632812 L 294.261719 400.632812 L 289.558594 411.65625 L 284.855469 400.632812 L 275.007812 400.632812 L 281.972656 393.582031 L 277.617188 382.453125 Z M 277.980469 368.867188 L 289.558594 357.140625 L 301.136719 368.867188 L 301.136719 379.75 L 289.558594 384.816406 L 277.980469 379.75 Z M 303.765625 371.527344 L 308.808594 376.640625 L 303.765625 378.667969 Z M 303.765625 351.179688 L 320.132812 351.179688 L 327.71875 358.863281 L 323.0625 370.761719 L 311.34375 375.46875 L 303.765625 367.792969 Z M 333.671875 351.179688 L 338.371094 340.15625 L 343.074219 351.179688 L 352.925781 351.179688 L 345.960938 358.234375 L 350.320312 369.359375 L 338.371094 364.128906 L 326.429688 369.355469 L 330.785156 358.234375 L 323.820312 351.179688 Z M 356.617188 351.179688 L 372.984375 351.179688 L 372.984375 367.792969 L 365.40625 375.46875 L 353.6875 370.761719 L 349.027344 358.863281 Z M 367.9375 376.640625 L 372.984375 371.527344 L 372.984375 378.667969 Z M 352.578125 380.285156 L 352.578125 373.144531 L 357.625 375.171875 Z M 376.535156 392.949219 L 368.949219 400.632812 L 352.578125 400.632812 L 352.578125 384.023438 L 360.160156 376.34375 L 371.878906 381.050781 Z M 380.753906 403.257812 L 385.761719 415.003906 L 380.753906 426.746094 L 370.042969 426.746094 L 358.449219 415.003906 L 370.042969 403.257812 Z M 376.535156 437.054688 L 371.878906 448.957031 L 366.085938 451.28125 L 366.046875 451.242188 L 360.117188 453.621094 L 352.578125 445.984375 L 352.578125 429.371094 L 368.949219 429.371094 Z M 372.984375 458.269531 L 368.085938 453.308594 L 372.984375 451.339844 Z M 372.984375 478.617188 L 356.617188 478.617188 L 349.027344 470.933594 L 353.6875 459.035156 L 359.476562 456.710938 L 359.519531 456.75 L 365.445312 454.367188 L 372.984375 462.003906 Z M 367.113281 492.984375 L 355.519531 504.730469 L 344.8125 504.730469 L 339.800781 492.984375 L 344.8125 481.246094 L 355.519531 481.246094 Z M 372.984375 507.355469 L 372.984375 523.96875 L 365.40625 531.644531 L 353.6875 526.9375 L 349.027344 515.039062 L 356.617188 507.355469 Z M 367.9375 532.816406 L 372.984375 527.703125 L 372.984375 534.84375 Z M 352.578125 536.464844 L 352.578125 529.324219 L 357.625 531.351562 Z M 376.535156 549.128906 L 368.945312 556.8125 L 352.578125 556.8125 L 352.578125 540.199219 L 360.160156 532.523438 L 371.878906 537.226562 Z M 380.753906 559.4375 L 385.761719 571.179688 L 380.753906 582.921875 L 370.042969 582.921875 L 358.449219 571.179688 L 370.042969 559.4375 Z M 376.535156 593.234375 L 371.878906 605.132812 L 366.085938 607.457031 L 366.046875 607.417969 L 360.117188 609.800781 L 352.578125 602.160156 L 352.578125 585.550781 L 368.949219 585.550781 Z M 372.984375 614.445312 L 368.085938 609.484375 L 372.984375 607.519531 Z M 372.984375 634.792969 L 356.617188 634.792969 L 349.027344 627.109375 L 353.6875 615.210938 L 359.476562 612.886719 L 359.519531 612.929688 L 365.445312 610.546875 L 372.984375 618.183594 Z M 333.671875 634.792969 L 323.820312 634.792969 L 330.785156 627.742188 L 326.53125 616.871094 L 338.371094 622.054688 L 350.21875 616.871094 L 345.960938 627.742188 L 352.925781 634.792969 L 343.074219 634.792969 L 338.371094 645.816406 Z M 309.636719 649.164062 L 321.230469 637.417969 L 331.9375 637.417969 L 336.949219 649.164062 L 331.9375 660.90625 L 321.230469 660.90625 Z M 303.765625 680.148438 L 303.765625 663.53125 L 320.132812 663.53125 L 327.71875 671.21875 L 323.0625 683.117188 L 311.34375 687.824219 Z M 303.765625 683.882812 L 308.808594 688.996094 L 303.765625 691.019531 Z M 247.179688 637.417969 L 257.886719 637.417969 L 269.484375 649.164062 L 257.886719 660.90625 L 247.179688 660.90625 L 242.171875 649.164062 Z M 236.039062 634.792969 L 226.191406 634.792969 L 233.15625 627.742188 L 228.898438 616.871094 L 240.742188 622.054688 L 252.589844 616.871094 L 248.328125 627.742188 L 255.296875 634.792969 L 245.445312 634.792969 L 240.742188 645.816406 Z M 212.003906 649.164062 L 223.597656 637.417969 L 234.308594 637.417969 L 239.316406 649.164062 L 234.308594 660.90625 L 223.597656 660.90625 Z M 206.132812 680.148438 L 206.132812 663.53125 L 222.5 663.53125 L 230.089844 671.21875 L 225.429688 683.117188 L 213.710938 687.824219 Z M 206.132812 683.882812 L 211.179688 688.996094 L 206.132812 691.019531 Z M 149.550781 637.417969 L 160.257812 637.417969 L 171.851562 649.164062 L 160.257812 660.90625 L 149.550781 660.90625 L 144.539062 649.164062 Z M 138.410156 634.792969 L 128.5625 634.792969 L 135.523438 627.742188 L 131.269531 616.871094 L 143.113281 622.054688 L 154.957031 616.871094 L 150.699219 627.742188 L 157.664062 634.792969 L 147.8125 634.792969 L 143.113281 645.816406 Z M 114.375 649.164062 L 125.96875 637.417969 L 136.675781 637.417969 L 141.6875 649.164062 L 136.675781 660.90625 L 125.96875 660.90625 Z M 108.5 680.148438 L 108.5 663.53125 L 124.871094 663.53125 L 132.457031 671.21875 L 127.800781 683.117188 L 116.082031 687.824219 Z M 108.5 683.882812 L 113.546875 688.996094 L 108.5 691.019531 Z M 51.917969 637.417969 L 62.625 637.417969 L 74.222656 649.164062 L 62.625 660.90625 L 51.917969 660.90625 L 46.910156 649.164062 Z M 45.480469 622.054688 L 57.324219 616.871094 L 53.066406 627.742188 L 60.035156 634.792969 L 50.183594 634.792969 L 45.480469 645.816406 L 40.777344 634.792969 L 30.929688 634.792969 L 37.894531 627.742188 L 33.636719 616.871094 Z M 57.058594 603.242188 L 57.058594 614.121094 L 45.480469 619.1875 L 33.902344 614.121094 L 33.902344 603.242188 L 45.480469 591.511719 Z M 57.058594 528.242188 L 57.058594 539.121094 L 45.480469 550.847656 L 33.902344 539.121094 L 33.902344 528.242188 L 45.480469 523.175781 Z M 50.183594 507.355469 L 60.035156 507.355469 L 53.066406 514.410156 L 57.425781 525.53125 L 45.480469 520.308594 L 33.539062 525.53125 L 37.894531 514.410156 L 30.929688 507.355469 L 40.777344 507.355469 L 45.480469 496.332031 Z M 45.480469 465.875 L 57.324219 460.695312 L 53.066406 471.5625 L 60.035156 478.617188 L 50.183594 478.617188 L 45.480469 489.640625 L 40.777344 478.617188 L 30.929688 478.617188 L 37.894531 471.5625 L 33.636719 460.695312 Z M 57.058594 447.0625 L 57.058594 457.941406 L 45.480469 463.007812 L 33.902344 457.941406 L 33.902344 447.0625 L 45.480469 435.335938 Z M 87.859375 426.746094 L 77.152344 426.746094 L 65.558594 415.003906 L 77.152344 403.257812 L 87.859375 403.257812 L 92.871094 415.003906 Z M 99 429.371094 L 108.847656 429.371094 L 101.886719 436.425781 L 106.140625 447.296875 L 94.296875 442.113281 L 82.453125 447.296875 L 86.710938 436.425781 L 79.746094 429.371094 L 89.59375 429.371094 L 94.296875 418.347656 Z M 123.035156 415.003906 L 111.441406 426.746094 L 100.734375 426.746094 L 95.726562 415.003906 L 100.734375 403.257812 L 111.441406 403.257812 Z M 128.910156 384.023438 L 128.910156 400.632812 L 112.539062 400.632812 L 104.953125 392.949219 L 109.609375 381.050781 L 121.328125 376.34375 Z M 128.910156 380.285156 L 123.859375 375.171875 L 128.910156 373.144531 Z M 185.488281 426.746094 L 174.78125 426.746094 L 163.1875 415.003906 L 174.78125 403.257812 L 185.488281 403.257812 L 190.5 415.003906 Z M 196.628906 429.371094 L 206.480469 429.371094 L 199.515625 436.425781 L 203.773438 447.296875 L 191.929688 442.113281 L 180.085938 447.296875 L 184.339844 436.425781 L 177.378906 429.371094 L 187.226562 429.371094 L 191.929688 418.347656 Z M 220.667969 415.003906 L 209.070312 426.746094 L 198.363281 426.746094 L 193.355469 415.003906 L 198.363281 403.257812 L 209.070312 403.257812 Z M 226.539062 384.023438 L 226.539062 400.632812 L 210.167969 400.632812 L 202.582031 392.949219 L 207.242188 381.050781 L 218.957031 376.34375 Z M 226.539062 380.285156 L 221.492188 375.171875 L 226.539062 373.144531 Z M 283.125 426.746094 L 272.414062 426.746094 L 260.820312 415.003906 L 272.414062 403.257812 L 283.125 403.257812 L 288.128906 415.003906 Z M 294.261719 429.371094 L 304.109375 429.371094 L 297.144531 436.425781 L 301.402344 447.296875 L 289.558594 442.113281 L 277.714844 447.296875 L 281.972656 436.425781 L 275.007812 429.371094 L 284.855469 429.371094 L 289.558594 418.347656 Z M 318.296875 415.003906 L 306.703125 426.746094 L 295.996094 426.746094 L 290.988281 415.003906 L 295.996094 403.257812 L 306.703125 403.257812 Z M 324.171875 384.023438 L 324.171875 400.632812 L 307.800781 400.632812 L 300.210938 392.949219 L 304.871094 381.050781 L 316.589844 376.34375 Z M 324.171875 380.285156 L 319.121094 375.171875 L 324.171875 373.144531 Z M 326.796875 457.941406 L 326.796875 447.0625 L 338.371094 435.335938 L 349.953125 447.0625 L 349.953125 457.941406 L 338.371094 463.007812 Z M 333.671875 478.617188 L 323.820312 478.617188 L 330.785156 471.5625 L 326.53125 460.695312 L 338.371094 465.875 L 350.21875 460.695312 L 345.960938 471.5625 L 352.925781 478.617188 L 343.074219 478.617188 L 338.371094 489.640625 Z M 338.371094 520.308594 L 326.429688 525.53125 L 330.785156 514.410156 L 323.820312 507.355469 L 333.671875 507.355469 L 338.371094 496.332031 L 343.074219 507.355469 L 352.925781 507.355469 L 345.960938 514.410156 L 350.320312 525.53125 Z M 326.796875 539.121094 L 326.796875 528.242188 L 338.371094 523.175781 L 349.953125 528.242188 L 349.953125 539.121094 L 338.371094 550.847656 Z M 274.246094 605.132812 L 268.457031 607.457031 L 268.414062 607.417969 L 262.488281 609.800781 L 254.945312 602.160156 L 254.945312 585.550781 L 271.320312 585.550781 L 278.90625 593.234375 Z M 270.457031 609.484375 L 275.355469 607.519531 L 275.355469 614.445312 Z M 256.058594 615.210938 L 261.847656 612.882812 L 261.886719 612.929688 L 267.816406 610.546875 L 275.355469 618.183594 L 275.355469 634.792969 L 258.984375 634.792969 L 251.394531 627.109375 Z M 254.945312 605.898438 L 259.847656 610.859375 L 254.945312 612.828125 Z M 176.617188 605.132812 L 170.824219 607.457031 L 170.785156 607.417969 L 164.855469 609.800781 L 157.316406 602.160156 L 157.316406 585.550781 L 173.6875 585.550781 L 181.273438 593.234375 Z M 172.828125 609.484375 L 177.722656 607.519531 L 177.722656 614.445312 Z M 158.425781 615.210938 L 164.214844 612.886719 L 164.253906 612.929688 L 170.183594 610.546875 L 177.722656 618.183594 L 177.722656 634.792969 L 161.355469 634.792969 L 153.765625 627.109375 Z M 157.316406 605.898438 L 162.214844 610.859375 L 157.316406 612.828125 Z M 77.152344 559.4375 L 87.859375 559.4375 L 92.871094 571.179688 L 87.859375 582.921875 L 77.152344 582.921875 L 65.558594 571.179688 Z M 59.6875 540.199219 L 67.265625 532.523438 L 78.984375 537.226562 L 83.644531 549.128906 L 76.054688 556.8125 L 59.6875 556.8125 Z M 64.730469 531.351562 L 59.6875 536.464844 L 59.6875 529.324219 Z M 80.09375 527.703125 L 80.09375 534.84375 L 75.042969 532.816406 Z M 63.722656 507.355469 L 80.09375 507.355469 L 80.09375 523.96875 L 72.515625 531.644531 L 60.792969 526.9375 L 56.136719 515.039062 Z M 74.222656 492.984375 L 62.625 504.730469 L 51.917969 504.730469 L 46.910156 492.984375 L 51.917969 481.246094 L 62.625 481.246094 Z M 60.792969 459.035156 L 66.585938 456.710938 L 66.625 456.75 L 72.550781 454.367188 L 80.09375 462.003906 L 80.09375 478.617188 L 63.722656 478.617188 L 56.136719 470.933594 Z M 64.582031 454.683594 L 59.6875 456.648438 L 59.6875 449.722656 Z M 78.984375 448.957031 L 73.195312 451.28125 L 73.15625 451.242188 L 67.222656 453.621094 L 59.6875 445.984375 L 59.6875 429.371094 L 76.054688 429.371094 L 83.644531 437.054688 Z M 80.09375 458.269531 L 75.195312 453.308594 L 80.09375 451.339844 Z M 158.425781 459.035156 L 164.214844 456.710938 L 164.253906 456.75 L 170.183594 454.367188 L 177.722656 462.003906 L 177.722656 478.617188 L 161.355469 478.617188 L 153.765625 470.933594 Z M 162.214844 454.683594 L 157.316406 456.648438 L 157.316406 449.722656 Z M 176.617188 448.957031 L 170.824219 451.28125 L 170.785156 451.242188 L 164.855469 453.621094 L 157.316406 445.988281 L 157.316406 429.371094 L 173.6875 429.371094 L 181.273438 437.054688 Z M 177.722656 458.269531 L 172.828125 453.308594 L 177.722656 451.339844 Z M 256.058594 459.035156 L 261.847656 456.710938 L 261.886719 456.75 L 267.816406 454.367188 L 275.355469 462.003906 L 275.355469 478.617188 L 258.984375 478.617188 L 251.394531 470.933594 Z M 259.847656 454.683594 L 254.945312 456.648438 L 254.945312 449.722656 Z M 274.246094 448.957031 L 268.457031 451.28125 L 268.414062 451.242188 L 262.488281 453.621094 L 254.945312 445.984375 L 254.945312 429.371094 L 271.320312 429.371094 L 278.90625 437.054688 Z M 275.355469 458.269531 L 270.457031 453.308594 L 275.355469 451.339844 Z M 309.636719 492.984375 L 321.230469 481.246094 L 331.9375 481.246094 L 336.949219 492.984375 L 331.9375 504.730469 L 321.230469 504.730469 Z M 323.0625 526.9375 L 311.34375 531.644531 L 303.765625 523.96875 L 303.765625 507.355469 L 320.132812 507.355469 L 327.71875 515.039062 Z M 319.121094 531.351562 L 324.171875 529.324219 L 324.171875 536.464844 Z M 303.765625 534.84375 L 303.765625 527.703125 L 308.808594 532.816406 Z M 300.210938 549.128906 L 304.871094 537.226562 L 316.589844 532.523438 L 324.171875 540.199219 L 324.171875 556.8125 L 307.800781 556.8125 Z M 295.996094 559.4375 L 306.703125 559.4375 L 318.296875 571.179688 L 306.703125 582.921875 L 295.996094 582.921875 L 290.988281 571.179688 Z M 277.980469 535.925781 L 277.980469 525.046875 L 289.558594 513.320312 L 301.136719 525.046875 L 301.136719 535.925781 L 289.558594 540.992188 Z M 284.855469 556.8125 L 275.003906 556.8125 L 281.972656 549.757812 L 277.617188 538.632812 L 289.558594 543.859375 L 301.503906 538.632812 L 297.144531 549.757812 L 304.113281 556.8125 L 294.261719 556.8125 L 289.558594 567.835938 Z M 272.414062 559.4375 L 283.125 559.4375 L 288.128906 571.179688 L 283.125 582.921875 L 272.414062 582.921875 L 260.820312 571.179688 Z M 254.945312 540.199219 L 262.527344 532.523438 L 274.246094 537.226562 L 278.90625 549.128906 L 271.320312 556.8125 L 254.945312 556.8125 Z M 259.996094 531.351562 L 254.945312 536.464844 L 254.945312 529.324219 Z M 275.355469 527.703125 L 275.355469 534.84375 L 270.308594 532.816406 Z M 251.394531 515.039062 L 258.984375 507.355469 L 275.355469 507.355469 L 275.355469 523.96875 L 267.773438 531.644531 L 256.058594 526.9375 Z M 242.171875 492.984375 L 247.179688 481.246094 L 257.886719 481.246094 L 269.484375 492.984375 L 257.886719 504.730469 L 247.179688 504.730469 Z M 212.003906 492.984375 L 223.597656 481.246094 L 234.308594 481.246094 L 239.316406 492.984375 L 234.308594 504.730469 L 223.597656 504.730469 Z M 225.429688 526.9375 L 213.710938 531.644531 L 206.132812 523.96875 L 206.132812 507.355469 L 222.5 507.355469 L 230.089844 515.039062 Z M 221.492188 531.351562 L 226.539062 529.324219 L 226.539062 536.464844 Z M 206.132812 534.84375 L 206.132812 527.703125 L 211.179688 532.816406 Z M 202.582031 549.128906 L 207.242188 537.226562 L 218.957031 532.523438 L 226.539062 540.199219 L 226.539062 556.8125 L 210.167969 556.8125 Z M 198.363281 559.4375 L 209.070312 559.4375 L 220.667969 571.179688 L 209.070312 582.921875 L 198.363281 582.921875 L 193.355469 571.179688 Z M 180.347656 535.925781 L 180.347656 525.046875 L 191.929688 513.320312 L 203.507812 525.046875 L 203.507812 535.925781 L 191.929688 540.992188 Z M 187.226562 556.8125 L 177.375 556.8125 L 184.339844 549.757812 L 179.984375 538.632812 L 191.929688 543.859375 L 203.871094 538.632812 L 199.515625 549.757812 L 206.480469 556.8125 L 196.628906 556.8125 L 191.929688 567.835938 Z M 174.78125 559.4375 L 185.488281 559.4375 L 190.5 571.179688 L 185.488281 582.921875 L 174.78125 582.921875 L 163.1875 571.179688 Z M 157.316406 540.199219 L 164.894531 532.523438 L 176.617188 537.226562 L 181.273438 549.128906 L 173.683594 556.8125 L 157.316406 556.8125 Z M 162.363281 531.351562 L 157.316406 536.464844 L 157.316406 529.324219 Z M 177.722656 527.703125 L 177.722656 534.84375 L 172.675781 532.816406 Z M 153.765625 515.039062 L 161.355469 507.355469 L 177.722656 507.355469 L 177.722656 523.96875 L 170.144531 531.644531 L 158.425781 526.9375 Z M 144.539062 492.984375 L 149.550781 481.246094 L 160.257812 481.246094 L 171.851562 492.984375 L 160.257812 504.730469 L 149.550781 504.730469 Z M 114.375 492.984375 L 125.96875 481.246094 L 136.675781 481.246094 L 141.6875 492.984375 L 136.675781 504.730469 L 125.96875 504.730469 Z M 127.800781 526.9375 L 116.082031 531.644531 L 108.5 523.96875 L 108.5 507.355469 L 124.871094 507.355469 L 132.457031 515.039062 Z M 123.859375 531.351562 L 128.910156 529.324219 L 128.910156 536.464844 Z M 108.5 534.84375 L 108.5 527.703125 L 113.546875 532.816406 Z M 104.953125 549.128906 L 109.609375 537.226562 L 121.328125 532.523438 L 128.910156 540.199219 L 128.910156 556.8125 L 112.539062 556.8125 Z M 100.734375 559.4375 L 111.441406 559.4375 L 123.035156 571.179688 L 111.441406 582.921875 L 100.734375 582.921875 L 95.726562 571.179688 Z M 82.71875 535.925781 L 82.71875 525.046875 L 94.296875 513.320312 L 105.875 525.046875 L 105.875 535.925781 L 94.296875 540.992188 Z M 94.296875 543.859375 L 106.242188 538.632812 L 101.886719 549.757812 L 108.847656 556.8125 L 99 556.8125 L 94.296875 567.835938 L 89.59375 556.8125 L 79.746094 556.8125 L 86.710938 549.757812 L 82.355469 538.632812 Z M 154.691406 528.242188 L 154.691406 539.121094 L 143.113281 550.847656 L 131.535156 539.121094 L 131.535156 528.242188 L 143.113281 523.175781 Z M 143.113281 520.308594 L 131.167969 525.53125 L 135.523438 514.410156 L 128.5625 507.355469 L 138.410156 507.355469 L 143.113281 496.332031 L 147.8125 507.355469 L 157.664062 507.355469 L 150.699219 514.410156 L 155.058594 525.53125 Z M 252.320312 528.242188 L 252.320312 539.121094 L 240.742188 550.847656 L 229.164062 539.121094 L 229.164062 528.242188 L 240.742188 523.175781 Z M 240.742188 520.308594 L 228.800781 525.53125 L 233.15625 514.410156 L 226.191406 507.355469 L 236.039062 507.355469 L 240.742188 496.332031 L 245.445312 507.355469 L 255.296875 507.355469 L 248.328125 514.410156 L 252.6875 525.53125 Z M 303.765625 462.003906 L 311.300781 454.367188 L 317.230469 456.75 L 317.269531 456.710938 L 323.0625 459.035156 L 327.71875 470.933594 L 320.132812 478.617188 L 303.765625 478.617188 Z M 308.660156 453.308594 L 303.765625 458.269531 L 303.765625 451.339844 Z M 324.171875 449.722656 L 324.171875 456.648438 L 319.269531 454.683594 Z M 316.628906 453.621094 L 310.703125 451.242188 L 310.660156 451.28125 L 304.871094 448.957031 L 300.210938 437.054688 L 307.800781 429.371094 L 324.171875 429.371094 L 324.171875 445.988281 Z M 277.980469 460.925781 L 277.980469 450.046875 L 289.558594 444.980469 L 301.136719 450.046875 L 301.136719 460.925781 L 289.558594 472.65625 Z M 289.558594 476.390625 L 301.136719 464.664062 L 301.136719 481.246094 L 317.539062 481.246094 L 305.945312 492.984375 L 317.539062 504.730469 L 301.136719 504.730469 L 301.136719 521.308594 L 289.558594 509.582031 L 277.980469 521.308594 L 277.980469 504.730469 L 261.578125 504.730469 L 273.171875 492.984375 L 261.578125 481.246094 L 277.980469 481.246094 L 277.980469 464.664062 Z M 229.164062 457.941406 L 229.164062 447.0625 L 240.742188 435.335938 L 252.320312 447.0625 L 252.320312 457.941406 L 240.742188 463.007812 Z M 240.742188 465.875 L 252.589844 460.695312 L 248.328125 471.5625 L 255.296875 478.617188 L 245.445312 478.617188 L 240.742188 489.640625 L 236.039062 478.617188 L 226.191406 478.617188 L 233.15625 471.5625 L 228.898438 460.695312 Z M 206.132812 462.003906 L 213.671875 454.367188 L 219.597656 456.75 L 219.640625 456.710938 L 225.429688 459.035156 L 230.089844 470.933594 L 222.5 478.617188 L 206.132812 478.617188 Z M 211.03125 453.308594 L 206.132812 458.269531 L 206.132812 451.339844 Z M 226.539062 449.722656 L 226.539062 456.648438 L 221.640625 454.683594 Z M 219 453.621094 L 213.070312 451.242188 L 213.03125 451.28125 L 207.242188 448.957031 L 202.582031 437.054688 L 210.167969 429.371094 L 226.539062 429.371094 L 226.539062 445.984375 Z M 180.347656 460.925781 L 180.347656 450.046875 L 191.929688 444.980469 L 203.507812 450.046875 L 203.507812 460.925781 L 191.929688 472.65625 Z M 191.929688 476.390625 L 203.507812 464.664062 L 203.507812 481.246094 L 219.910156 481.246094 L 208.316406 492.984375 L 219.910156 504.730469 L 203.507812 504.730469 L 203.507812 521.308594 L 191.929688 509.582031 L 180.347656 521.308594 L 180.347656 504.730469 L 163.945312 504.730469 L 175.542969 492.984375 L 163.945312 481.246094 L 180.347656 481.246094 L 180.347656 464.664062 Z M 131.535156 457.941406 L 131.535156 447.0625 L 143.113281 435.335938 L 154.691406 447.0625 L 154.691406 457.941406 L 143.113281 463.007812 Z M 143.113281 465.875 L 154.957031 460.695312 L 150.699219 471.5625 L 157.664062 478.617188 L 147.8125 478.617188 L 143.113281 489.640625 L 138.410156 478.617188 L 128.5625 478.617188 L 135.523438 471.5625 L 131.269531 460.695312 Z M 108.5 462.003906 L 116.039062 454.367188 L 121.96875 456.75 L 122.011719 456.710938 L 127.800781 459.035156 L 132.457031 470.933594 L 124.871094 478.617188 L 108.5 478.617188 Z M 113.398438 453.308594 L 108.5 458.269531 L 108.5 451.339844 Z M 128.910156 449.722656 L 128.910156 456.648438 L 124.011719 454.683594 Z M 121.367188 453.621094 L 115.441406 451.242188 L 115.398438 451.28125 L 109.609375 448.957031 L 104.953125 437.054688 L 112.539062 429.371094 L 128.910156 429.371094 L 128.910156 445.984375 Z M 82.71875 460.925781 L 82.71875 450.046875 L 94.296875 444.980469 L 105.875 450.046875 L 105.875 460.925781 L 94.296875 472.65625 Z M 94.296875 476.390625 L 105.875 464.664062 L 105.875 481.246094 L 122.277344 481.246094 L 110.683594 492.984375 L 122.277344 504.730469 L 105.875 504.730469 L 105.875 521.308594 L 94.296875 509.582031 L 82.71875 521.308594 L 82.71875 504.730469 L 66.316406 504.730469 L 77.910156 492.984375 L 66.316406 481.246094 L 82.71875 481.246094 L 82.71875 464.664062 Z M 78.984375 605.132812 L 73.195312 607.457031 L 73.15625 607.417969 L 67.222656 609.800781 L 59.6875 602.160156 L 59.6875 585.550781 L 76.054688 585.550781 L 83.644531 593.234375 Z M 75.195312 609.484375 L 80.09375 607.519531 L 80.09375 614.445312 Z M 59.6875 612.828125 L 59.6875 605.898438 L 64.582031 610.859375 Z M 60.792969 615.210938 L 66.585938 612.882812 L 66.625 612.929688 L 72.550781 610.546875 L 80.09375 618.183594 L 80.09375 634.792969 L 63.722656 634.792969 L 56.136719 627.109375 Z M 105.875 606.222656 L 105.875 617.105469 L 94.296875 628.832031 L 82.71875 617.105469 L 82.71875 606.222656 L 94.296875 601.15625 Z M 94.296875 598.292969 L 82.453125 603.472656 L 86.710938 592.601562 L 79.746094 585.550781 L 89.59375 585.550781 L 94.296875 574.527344 L 99 585.550781 L 108.847656 585.550781 L 101.886719 592.601562 L 106.140625 603.472656 Z M 128.910156 602.160156 L 121.367188 609.800781 L 115.441406 607.417969 L 115.398438 607.457031 L 109.609375 605.132812 L 104.953125 593.234375 L 112.539062 585.550781 L 128.910156 585.550781 Z M 124.011719 610.859375 L 128.910156 605.898438 L 128.910156 612.828125 Z M 108.5 614.445312 L 108.5 607.519531 L 113.398438 609.484375 Z M 116.039062 610.546875 L 121.96875 612.929688 L 122.011719 612.882812 L 127.800781 615.210938 L 132.457031 627.109375 L 124.871094 634.792969 L 108.5 634.792969 L 108.5 618.183594 Z M 154.691406 603.242188 L 154.691406 614.121094 L 143.113281 619.1875 L 131.535156 614.121094 L 131.535156 603.242188 L 143.113281 591.511719 Z M 143.113281 587.777344 L 131.535156 599.503906 L 131.535156 582.921875 L 115.128906 582.921875 L 126.726562 571.179688 L 115.128906 559.4375 L 131.535156 559.4375 L 131.535156 542.859375 L 143.113281 554.585938 L 154.691406 542.859375 L 154.691406 559.4375 L 171.09375 559.4375 L 159.5 571.179688 L 171.09375 582.921875 L 154.691406 582.921875 L 154.691406 599.503906 Z M 203.507812 606.222656 L 203.507812 617.105469 L 191.929688 628.832031 L 180.347656 617.105469 L 180.347656 606.222656 L 191.929688 601.15625 Z M 191.929688 598.292969 L 180.085938 603.472656 L 184.339844 592.601562 L 177.378906 585.550781 L 187.226562 585.550781 L 191.929688 574.527344 L 196.628906 585.550781 L 206.480469 585.550781 L 199.515625 592.601562 L 203.773438 603.472656 Z M 226.539062 602.160156 L 219 609.796875 L 213.070312 607.417969 L 213.03125 607.457031 L 207.242188 605.132812 L 202.582031 593.234375 L 210.167969 585.550781 L 226.539062 585.550781 Z M 221.640625 610.859375 L 226.539062 605.898438 L 226.539062 612.828125 Z M 206.132812 614.445312 L 206.132812 607.519531 L 211.03125 609.484375 Z M 213.671875 610.546875 L 219.597656 612.929688 L 219.640625 612.882812 L 225.429688 615.210938 L 230.089844 627.109375 L 222.5 634.792969 L 206.132812 634.792969 L 206.132812 618.183594 Z M 252.320312 603.242188 L 252.320312 614.121094 L 240.742188 619.1875 L 229.164062 614.121094 L 229.164062 603.242188 L 240.742188 591.511719 Z M 240.742188 587.777344 L 229.164062 599.503906 L 229.164062 582.921875 L 212.761719 582.921875 L 224.359375 571.179688 L 212.761719 559.4375 L 229.164062 559.4375 L 229.164062 542.859375 L 240.742188 554.585938 L 252.320312 542.859375 L 252.320312 559.4375 L 268.722656 559.4375 L 257.128906 571.179688 L 268.722656 582.921875 L 252.320312 582.921875 L 252.320312 599.503906 Z M 301.136719 606.222656 L 301.136719 617.105469 L 289.558594 628.832031 L 277.980469 617.105469 L 277.980469 606.222656 L 289.558594 601.15625 Z M 289.558594 598.292969 L 277.714844 603.472656 L 281.972656 592.601562 L 275.007812 585.550781 L 284.855469 585.550781 L 289.558594 574.527344 L 294.261719 585.550781 L 304.109375 585.550781 L 297.144531 592.601562 L 301.402344 603.472656 Z M 324.171875 602.160156 L 316.628906 609.800781 L 310.703125 607.417969 L 310.660156 607.457031 L 304.871094 605.132812 L 300.210938 593.234375 L 307.800781 585.550781 L 324.171875 585.550781 Z M 319.269531 610.859375 L 324.171875 605.898438 L 324.171875 612.828125 Z M 303.765625 614.445312 L 303.765625 607.519531 L 308.660156 609.484375 Z M 311.300781 610.546875 L 317.230469 612.929688 L 317.269531 612.886719 L 323.0625 615.210938 L 327.71875 627.109375 L 320.132812 634.792969 L 303.765625 634.792969 L 303.765625 618.183594 Z M 349.953125 603.242188 L 349.953125 614.121094 L 338.371094 619.1875 L 326.796875 614.121094 L 326.796875 603.242188 L 338.371094 591.511719 Z M 352.578125 605.898438 L 357.476562 610.859375 L 352.578125 612.828125 Z M 349.953125 582.921875 L 349.953125 599.503906 L 338.371094 587.777344 L 326.796875 599.503906 L 326.796875 582.921875 L 310.390625 582.921875 L 321.988281 571.179688 L 310.390625 559.4375 L 326.796875 559.4375 L 326.796875 542.859375 L 338.371094 554.585938 L 349.953125 542.859375 L 349.953125 559.4375 L 366.355469 559.4375 L 354.757812 571.179688 L 366.355469 582.921875 Z M 352.578125 449.722656 L 357.476562 454.683594 L 352.578125 456.648438 Z M 326.796875 382.945312 L 326.796875 372.0625 L 338.371094 366.996094 L 349.953125 372.0625 L 349.953125 382.945312 L 338.371094 394.671875 Z M 338.371094 398.410156 L 349.953125 386.679688 L 349.953125 403.257812 L 366.355469 403.257812 L 354.757812 415.003906 L 366.355469 426.746094 L 349.953125 426.746094 L 349.953125 443.324219 L 338.371094 431.601562 L 326.796875 443.328125 L 326.796875 426.746094 L 310.390625 426.746094 L 321.988281 415.003906 L 310.390625 403.257812 L 326.796875 403.257812 L 326.796875 386.679688 Z M 270.308594 376.640625 L 275.355469 371.527344 L 275.355469 378.667969 Z M 254.945312 380.285156 L 254.945312 373.144531 L 259.996094 375.171875 Z M 262.527344 376.34375 L 274.246094 381.050781 L 278.90625 392.949219 L 271.320312 400.632812 L 254.945312 400.632812 L 254.945312 384.023438 Z M 229.164062 382.945312 L 229.164062 372.0625 L 240.742188 366.996094 L 252.320312 372.0625 L 252.320312 382.945312 L 240.742188 394.671875 Z M 240.742188 398.410156 L 252.320312 386.679688 L 252.320312 403.257812 L 268.722656 403.257812 L 257.128906 415.003906 L 268.722656 426.746094 L 252.320312 426.746094 L 252.320312 443.324219 L 240.742188 431.601562 L 229.164062 443.324219 L 229.164062 426.746094 L 212.761719 426.746094 L 224.359375 415.003906 L 212.761719 403.257812 L 229.164062 403.257812 L 229.164062 386.679688 Z M 172.675781 376.640625 L 177.722656 371.527344 L 177.722656 378.667969 Z M 157.316406 380.285156 L 157.316406 373.144531 L 162.363281 375.171875 Z M 164.894531 376.34375 L 176.617188 381.050781 L 181.273438 392.949219 L 173.6875 400.632812 L 157.316406 400.632812 L 157.316406 384.023438 Z M 131.535156 382.945312 L 131.535156 372.0625 L 143.113281 366.996094 L 154.691406 372.0625 L 154.691406 382.945312 L 143.113281 394.671875 Z M 143.113281 398.410156 L 154.691406 386.679688 L 154.691406 403.257812 L 171.09375 403.257812 L 159.5 415.003906 L 171.09375 426.746094 L 154.691406 426.746094 L 154.691406 443.328125 L 143.113281 431.601562 L 131.535156 443.324219 L 131.535156 426.746094 L 115.128906 426.746094 L 126.726562 415.003906 L 115.128906 403.257812 L 131.535156 403.257812 L 131.535156 386.679688 Z M 75.042969 376.640625 L 80.09375 371.527344 L 80.09375 378.667969 Z M 59.6875 380.285156 L 59.6875 373.144531 L 64.730469 375.171875 Z M 67.265625 376.34375 L 78.984375 381.050781 L 83.644531 392.949219 L 76.054688 400.632812 L 59.6875 400.632812 L 59.6875 384.023438 Z M 33.902344 382.945312 L 33.902344 372.0625 L 45.480469 366.996094 L 57.058594 372.0625 L 57.058594 382.945312 L 45.480469 394.671875 Z M 31.277344 380.285156 L 26.230469 375.171875 L 31.277344 373.144531 Z M 33.902344 403.257812 L 33.902344 386.679688 L 45.480469 398.410156 L 57.058594 386.679688 L 57.058594 403.257812 L 73.460938 403.257812 L 61.867188 415.003906 L 73.460938 426.746094 L 57.058594 426.746094 L 57.058594 443.324219 L 45.480469 431.601562 L 33.902344 443.328125 L 33.902344 426.746094 L 17.5 426.746094 L 29.09375 415.003906 L 17.5 403.257812 Z M 31.277344 536.464844 L 26.230469 531.351562 L 31.277344 529.324219 Z M 33.902344 559.4375 L 33.902344 542.859375 L 45.480469 554.585938 L 57.058594 542.859375 L 57.058594 559.4375 L 73.460938 559.4375 L 61.867188 571.179688 L 73.460938 582.921875 L 57.058594 582.921875 L 57.058594 599.503906 L 45.480469 587.777344 L 33.902344 599.503906 L 33.902344 582.921875 L 17.5 582.921875 L 29.09375 571.179688 L 17.5 559.4375 Z M 64.730469 687.527344 L 59.6875 692.636719 L 59.6875 685.5 Z M 80.09375 683.882812 L 80.09375 691.019531 L 75.042969 688.996094 Z M 72.515625 687.824219 L 60.792969 683.117188 L 56.136719 671.21875 L 63.722656 663.53125 L 80.09375 663.53125 L 80.09375 680.148438 Z M 105.875 681.222656 L 105.875 692.105469 L 94.296875 697.171875 L 82.71875 692.105469 L 82.71875 681.222656 L 94.296875 669.496094 Z M 94.296875 665.761719 L 82.71875 677.484375 L 82.71875 660.90625 L 66.316406 660.90625 L 77.910156 649.164062 L 66.316406 637.417969 L 82.71875 637.417969 L 82.71875 620.839844 L 94.296875 632.570312 L 105.875 620.839844 L 105.875 637.417969 L 122.277344 637.417969 L 110.683594 649.164062 L 122.277344 660.90625 L 105.875 660.90625 L 105.875 677.488281 Z M 162.363281 687.527344 L 157.316406 692.636719 L 157.316406 685.5 Z M 177.722656 683.882812 L 177.722656 691.019531 L 172.675781 688.996094 Z M 170.144531 687.824219 L 158.425781 683.117188 L 153.765625 671.21875 L 161.355469 663.53125 L 177.722656 663.53125 L 177.722656 680.148438 Z M 203.507812 681.222656 L 203.507812 692.105469 L 191.929688 697.171875 L 180.347656 692.105469 L 180.347656 681.222656 L 191.929688 669.496094 Z M 191.929688 665.761719 L 180.347656 677.484375 L 180.347656 660.90625 L 163.945312 660.90625 L 175.542969 649.164062 L 163.945312 637.417969 L 180.347656 637.417969 L 180.347656 620.839844 L 191.929688 632.570312 L 203.507812 620.839844 L 203.507812 637.417969 L 219.910156 637.417969 L 208.316406 649.164062 L 219.910156 660.90625 L 203.507812 660.90625 L 203.507812 677.484375 Z M 259.996094 687.527344 L 254.945312 692.636719 L 254.945312 685.5 Z M 275.355469 683.882812 L 275.355469 691.019531 L 270.308594 688.996094 Z M 267.773438 687.824219 L 256.058594 683.117188 L 251.394531 671.21875 L 258.984375 663.53125 L 275.355469 663.53125 L 275.355469 680.148438 Z M 301.136719 681.222656 L 301.136719 692.105469 L 289.558594 697.171875 L 277.980469 692.105469 L 277.980469 681.222656 L 289.558594 669.496094 Z M 289.558594 665.761719 L 277.980469 677.488281 L 277.980469 660.90625 L 261.578125 660.90625 L 273.171875 649.164062 L 261.578125 637.417969 L 277.980469 637.417969 L 277.980469 620.839844 L 289.558594 632.570312 L 301.136719 620.839844 L 301.136719 637.417969 L 317.539062 637.417969 L 305.945312 649.164062 L 317.539062 660.90625 L 301.136719 660.90625 L 301.136719 677.484375 Z M 367.113281 649.164062 L 355.519531 660.90625 L 344.8125 660.90625 L 339.800781 649.164062 L 344.8125 637.417969 L 355.519531 637.417969 Z M 357.625 687.527344 L 352.578125 692.636719 L 352.578125 685.5 Z M 372.984375 683.882812 L 372.984375 691.019531 L 367.9375 688.996094 Z M 372.984375 663.53125 L 372.984375 680.148438 L 365.40625 687.824219 L 353.6875 683.117188 L 349.027344 671.21875 L 356.617188 663.53125 Z M 387.292969 727.449219 L 387.292969 723.765625 L 387.191406 724.011719 L 382.488281 712.988281 L 372.636719 712.988281 L 379.601562 705.9375 L 375.246094 694.808594 L 387.191406 700.035156 L 387.292969 699.988281 L 387.292969 697.125 L 387.191406 697.171875 L 375.609375 692.105469 L 375.609375 681.222656 L 387.191406 669.496094 L 387.292969 669.601562 L 387.292969 665.863281 L 387.191406 665.761719 L 375.609375 677.484375 L 375.609375 660.90625 L 359.207031 660.90625 L 370.804688 649.164062 L 359.207031 637.417969 L 375.609375 637.417969 L 375.609375 620.839844 L 387.191406 632.570312 L 387.292969 632.460938 L 387.292969 628.726562 L 387.191406 628.832031 L 375.609375 617.105469 L 375.609375 606.222656 L 387.191406 601.15625 L 387.292969 601.203125 L 387.292969 598.335938 L 387.191406 598.292969 L 375.347656 603.472656 L 379.601562 592.601562 L 372.636719 585.550781 L 382.488281 585.550781 L 387.191406 574.527344 L 387.292969 574.773438 L 387.292969 567.589844 L 387.191406 567.835938 L 382.488281 556.8125 L 372.636719 556.8125 L 379.601562 549.757812 L 375.246094 538.632812 L 387.191406 543.859375 L 387.292969 543.816406 L 387.292969 540.949219 L 387.191406 540.992188 L 375.609375 535.925781 L 375.609375 525.046875 L 387.191406 513.320312 L 387.292969 513.425781 L 387.292969 509.691406 L 387.191406 509.582031 L 375.609375 521.308594 L 375.609375 504.730469 L 359.207031 504.730469 L 370.804688 492.984375 L 359.207031 481.246094 L 375.609375 481.246094 L 375.609375 464.664062 L 387.191406 476.390625 L 387.292969 476.285156 L 387.292969 472.546875 L 387.191406 472.65625 L 375.609375 460.925781 L 375.609375 450.046875 L 387.191406 444.980469 L 387.292969 445.023438 L 387.292969 442.160156 L 387.191406 442.113281 L 375.347656 447.296875 L 379.601562 436.425781 L 372.636719 429.371094 L 382.488281 429.371094 L 387.191406 418.347656 L 387.292969 418.59375 L 387.292969 411.410156 L 387.191406 411.65625 L 382.488281 400.632812 L 372.636719 400.632812 L 379.601562 393.582031 L 375.246094 382.453125 L 387.191406 387.683594 L 387.292969 387.636719 L 387.292969 384.769531 L 387.191406 384.816406 L 375.609375 379.75 L 375.609375 368.867188 L 387.191406 357.140625 L 387.292969 357.246094 L 387.292969 353.511719 L 387.191406 353.40625 L 375.609375 365.132812 L 375.609375 348.554688 L 359.207031 348.554688 L 370.804688 336.808594 L 370.714844 336.71875 L 367.019531 336.71875 L 367.113281 336.808594 L 355.519531 348.554688 L 344.8125 348.554688 L 339.800781 336.808594 L 339.839844 336.71875 L 336.90625 336.71875 L 336.949219 336.808594 L 331.9375 348.554688 L 321.230469 348.554688 L 309.636719 336.808594 L 309.726562 336.71875 L 306.035156 336.71875 L 305.945312 336.808594 L 317.539062 348.554688 L 301.136719 348.554688 L 301.136719 365.132812 L 289.558594 353.40625 L 277.980469 365.132812 L 277.980469 348.554688 L 261.578125 348.554688 L 273.171875 336.808594 L 273.078125 336.71875 L 269.390625 336.71875 L 269.484375 336.808594 L 257.886719 348.554688 L 247.179688 348.554688 L 242.171875 336.808594 L 242.210938 336.71875 L 239.277344 336.71875 L 239.316406 336.808594 L 234.308594 348.554688 L 223.597656 348.554688 L 212.003906 336.808594 L 212.09375 336.71875 L 208.40625 336.71875 L 208.316406 336.808594 L 219.910156 348.554688 L 203.507812 348.554688 L 203.507812 365.132812 L 191.929688 353.40625 L 180.347656 365.132812 L 180.347656 348.554688 L 163.945312 348.554688 L 175.542969 336.808594 L 175.449219 336.71875 L 171.757812 336.71875 L 171.851562 336.808594 L 160.257812 348.554688 L 149.550781 348.554688 L 144.539062 336.808594 L 144.582031 336.71875 L 141.644531 336.71875 L 141.6875 336.808594 L 136.675781 348.554688 L 125.96875 348.554688 L 114.375 336.808594 L 114.464844 336.71875 L 110.773438 336.71875 L 110.683594 336.808594 L 122.277344 348.554688 L 105.875 348.554688 L 105.875 365.132812 L 94.296875 353.40625 L 82.71875 365.132812 L 82.71875 348.554688 L 66.316406 348.554688 L 77.910156 336.808594 L 77.820312 336.71875 L 74.128906 336.71875 L 74.222656 336.808594 L 62.625 348.554688 L 51.917969 348.554688 L 46.910156 336.808594 L 46.949219 336.71875 L 44.015625 336.71875 L 44.054688 336.808594 L 39.046875 348.554688 L 28.339844 348.554688 L 16.742188 336.808594 L 16.832031 336.71875 L 13.144531 336.71875 L 13.050781 336.808594 L 24.648438 348.554688 L 8.242188 348.554688 L 8.242188 365.132812 L -3.332031 353.40625 L -3.4375 353.511719 L -3.4375 357.246094 L -3.332031 357.140625 L 8.242188 368.867188 L 8.242188 379.75 L -3.332031 384.816406 L -3.4375 384.769531 L -3.4375 387.636719 L -3.332031 387.683594 L 8.609375 382.453125 L 4.253906 393.582031 L 11.21875 400.632812 L 1.371094 400.632812 L -3.332031 411.65625 L -3.4375 411.410156 L -3.4375 418.59375 L -3.332031 418.347656 L 1.371094 429.371094 L 11.21875 429.371094 L 4.253906 436.425781 L 8.511719 447.296875 L -3.332031 442.113281 L -3.4375 442.160156 L -3.4375 445.023438 L -3.332031 444.980469 L 8.242188 450.046875 L 8.242188 460.925781 L -3.332031 472.65625 L -3.4375 472.546875 L -3.4375 476.285156 L -3.332031 476.390625 L 8.242188 464.664062 L 8.242188 481.246094 L 24.648438 481.246094 L 13.050781 492.984375 L 24.648438 504.730469 L 8.242188 504.730469 L 8.242188 521.308594 L -3.332031 509.582031 L -3.4375 509.691406 L -3.4375 513.425781 L -3.332031 513.320312 L 8.242188 525.046875 L 8.242188 535.925781 L -3.332031 540.992188 L -3.4375 540.949219 L -3.4375 543.816406 L -3.332031 543.859375 L 8.609375 538.632812 L 4.253906 549.757812 L 11.21875 556.8125 L 1.371094 556.8125 L -3.332031 567.835938 L -3.4375 567.589844 L -3.4375 574.773438 L -3.332031 574.527344 L 1.371094 585.550781 L 11.21875 585.550781 L 4.253906 592.601562 L 8.511719 603.472656 L -3.332031 598.292969 L -3.4375 598.335938 L -3.4375 601.203125 L -3.332031 601.15625 L 8.242188 606.222656 L 8.242188 617.105469 L -3.332031 628.832031 L -3.4375 628.726562 L -3.4375 632.460938 L -3.332031 632.570312 L 8.242188 620.839844 L 8.242188 637.417969 L 24.648438 637.417969 L 13.050781 649.164062 L 24.648438 660.90625 L 8.242188 660.90625 L 8.242188 677.484375 L -3.332031 665.761719 L -3.4375 665.863281 L -3.4375 669.601562 L -3.332031 669.496094 L 8.242188 681.222656 L 8.242188 692.105469 L -3.332031 697.171875 L -3.4375 697.125 L -3.4375 699.988281 L -3.332031 700.035156 L 8.609375 694.808594 L 4.253906 705.9375 L 11.21875 712.988281 L 1.371094 712.988281 L -3.332031 724.011719 L -3.4375 723.765625 L -3.4375 727.449219 L -1.867188 727.449219 L -1.90625 727.359375 L 3.101562 715.613281 L 13.808594 715.613281 L 25.40625 727.359375 L 25.316406 727.449219 L 29.003906 727.449219 L 29.09375 727.359375 L 17.5 715.613281 L 33.902344 715.613281 L 33.902344 699.035156 L 45.480469 710.765625 L 57.058594 699.035156 L 57.058594 715.613281 L 73.460938 715.613281 L 61.867188 727.359375 L 61.960938 727.449219 L 65.648438 727.449219 L 65.558594 727.359375 L 77.152344 715.613281 L 87.859375 715.613281 L 92.871094 727.359375 L 92.832031 727.449219 L 95.765625 727.449219 L 95.726562 727.359375 L 100.734375 715.613281 L 111.441406 715.613281 L 123.035156 727.359375 L 122.945312 727.449219 L 126.636719 727.449219 L 126.726562 727.359375 L 115.128906 715.613281 L 131.535156 715.613281 L 131.535156 699.035156 L 143.113281 710.765625 L 154.691406 699.035156 L 154.691406 715.613281 L 171.09375 715.613281 L 159.5 727.359375 L 159.589844 727.449219 L 163.28125 727.449219 L 163.1875 727.359375 L 174.78125 715.613281 L 185.488281 715.613281 L 190.5 727.359375 L 190.460938 727.449219 L 193.394531 727.449219 L 193.355469 727.359375 L 198.363281 715.613281 L 209.070312 715.613281 L 220.667969 727.359375 L 220.578125 727.449219 L 224.265625 727.449219 L 224.359375 727.359375 L 212.761719 715.613281 L 229.164062 715.613281 L 229.164062 699.035156 L 240.742188 710.765625 L 252.320312 699.035156 L 252.320312 715.613281 L 268.722656 715.613281 L 257.128906 727.359375 L 257.222656 727.449219 L 260.910156 727.449219 L 260.820312 727.359375 L 272.414062 715.613281 L 283.125 715.613281 L 288.128906 727.359375 L 288.09375 727.449219 L 291.027344 727.449219 L 290.988281 727.359375 L 295.996094 715.613281 L 306.703125 715.613281 L 318.296875 727.359375 L 318.207031 727.449219 L 321.898438 727.449219 L 321.988281 727.359375 L 310.390625 715.613281 L 326.796875 715.613281 L 326.796875 699.035156 L 338.371094 710.765625 L 349.953125 699.035156 L 349.953125 715.613281 L 366.355469 715.613281 L 354.757812 727.359375 L 354.851562 727.449219 L 358.542969 727.449219 L 358.449219 727.359375 L 370.042969 715.613281 L 380.753906 715.613281 L 385.761719 727.359375 L 385.722656 727.449219 L 387.292969 727.449219 " fill-opacity="1" fill-rule="nonzero"/></g></svg>