<?xml version="1.0" encoding="UTF-8" standalone="no"?>
<!-- Created with Inkscape (http://www.inkscape.org/) -->

<svg
   width="445.2641"
   height="1319.2528"
   viewBox="0 0 117.80946 349.0523"
   version="1.1"
   id="svg769"
   xml:space="preserve"
   xmlns="http://www.w3.org/2000/svg"
   xmlns:svg="http://www.w3.org/2000/svg"><defs
     id="defs766" /><g
     id="layer1"
     transform="translate(-383.92977,-1594.0702)"><g
       id="g17579"
       transform="matrix(1.5830865,0,0,1.5830865,-33.832078,-728.93998)"
       style="fill:#6f937c;fill-opacity:1;stroke:none"><g
         id="g17547"
         style="fill:#6f937c;fill-opacity:1;stroke:none"
         transform="rotate(45,346.29152,1484.2855)"><path
           id="path17545"
           style="fill:#6f937c;fill-opacity:1;stroke:none;stroke-width:8.24997;stop-color:#000000"
           d="m 314.62001,1523.6042 v 28.2224 h 28.22233 v -28.2224 z m 9.78122,9.7813 h 8.65989 v 8.6599 h -8.65989 z" /></g><path
         id="path17549"
         style="fill:#6f937c;fill-opacity:1;stroke:none;stroke-width:2.53147;stop-color:#000000"
         transform="rotate(45)"
         d="m 1394.2319,975.47333 h 8.6599 v 8.65987 h -8.6599 z" /><path
         id="path17551"
         style="fill:#6f937c;fill-opacity:1;stroke:none;stroke-width:2.53147;stop-color:#000000"
         d="m 270.01419,1543.4379 6.12347,6.1235 -6.12346,6.1234 -6.12347,-6.1234 z" /><path
         id="path17553"
         style="fill:#6f937c;fill-opacity:1;stroke:none;stroke-width:5.78058;stop-color:#000000"
         d="m 309.90333,1560.4022 6.12347,6.1235 -33.76565,33.7656 -6.12348,-6.1234 z" /><path
         id="path17555"
         style="fill:#6f937c;fill-opacity:1;stroke:none;stroke-width:5.78058;stop-color:#000000"
         d="m 290.74835,1467.3931 -6.12347,6.1235 33.76565,33.7656 6.12348,-6.1234 z" /><path
         id="path17557"
         style="fill:#6f937c;fill-opacity:1;stroke:none;stroke-width:5.78058;stop-color:#000000"
         d="m 282.28426,1475.8835 -6.12347,6.1235 33.76565,33.7656 6.12348,-6.1234 z" /><g
         id="g17561"
         style="fill:#6f937c;fill-opacity:1;stroke:none"
         transform="rotate(45,298.11319,1504.2416)"><path
           id="path17559"
           style="fill:#6f937c;fill-opacity:1;stroke:none;stroke-width:8.24997;stop-color:#000000"
           d="m 314.62014,1523.6044 v 28.2223 l 28.22209,-3e-4 2.3e-4,-28.222 z m 9.78121,9.7812 h 8.6599 v 8.6599 h -8.6599 z" /></g><g
         id="g17565"
         style="fill:#6f937c;fill-opacity:1;stroke:none"
         transform="rotate(45,223.81567,1535.0167)"><path
           id="path17563"
           style="fill:#6f937c;fill-opacity:1;stroke:none;stroke-width:8.24997;stop-color:#000000"
           d="m 314.62006,1523.6043 v 28.2224 h 28.22232 v -28.2224 z m 9.78121,9.7812 h 8.65989 v 8.6599 h -8.65989 z" /></g><g
         id="g17571"
         transform="rotate(75,310.42351,1580.8554)"
         style="fill:#6f937c;fill-opacity:1;stroke:none"><path
           id="path17567"
           style="fill:#6f937c;fill-opacity:1;stroke:none;stroke-width:5.78058;stop-color:#000000"
           d="m 325.32135,1555.9788 4.32994,7.4997 -24.41285,14.0947 -4.32998,-7.4996 z" /><path
           id="path17569"
           style="fill:#6f937c;fill-opacity:1;stroke:none;stroke-width:5.78058;stop-color:#000000"
           d="m 339.4162,1580.3916 -7.49972,4.33 -14.09476,-24.4128 7.49963,-4.33 z" /></g><path
         id="path17573"
         style="fill:#6f937c;fill-opacity:1;stroke:none;stroke-width:5.78058;stop-color:#000000"
         d="m 282.26114,1644.8716 -6.12347,-6.1235 19.93303,-19.9329 6.12348,6.1234 z" /><g
         id="g17577"
         style="fill:#6f937c;fill-opacity:1;stroke:none"
         transform="rotate(45,170.02507,1557.3162)"><path
           id="path17575"
           style="fill:#6f937c;fill-opacity:1;stroke:none;stroke-width:8.24997;stop-color:#000000"
           d="m 314.62007,1523.6046 v 28.2218 l 28.2221,3e-4 v -28.2223 z m 9.78122,9.7807 h 8.65989 v 8.6599 h -8.65989 z" /></g></g></g></svg>
