<svg xmlns="http://www.w3.org/2000/svg" xmlns:xlink="http://www.w3.org/1999/xlink" width="512" zoomAndPan="magnify" viewBox="0 0 384 383.999986" height="512" preserveAspectRatio="xMidYMid meet" version="1.0"><defs><clipPath id="id1"><path d="M 0 306 L 78 306 L 78 383.832031 L 0 383.832031 Z M 0 306 " clip-rule="nonzero"/></clipPath><clipPath id="id2"><path d="M 0 303.582031 L 80.25 303.582031 L 80.25 383.832031 L 0 383.832031 Z M 0 303.582031 " clip-rule="nonzero"/></clipPath><clipPath id="id3"><path d="M 306 308 L 383.832031 308 L 383.832031 384 L 306 384 Z M 306 308 " clip-rule="nonzero"/></clipPath><clipPath id="id4"><path d="M 303.582031 305.554688 L 383.832031 305.554688 L 383.832031 384 L 303.582031 384 Z M 303.582031 305.554688 " clip-rule="nonzero"/></clipPath><clipPath id="id5"><path d="M 306 1.972656 L 383.996094 1.972656 L 383.996094 80 L 306 80 Z M 306 1.972656 " clip-rule="nonzero"/></clipPath><clipPath id="id6"><path d="M 303.746094 2 L 383.996094 2 L 383.996094 82.222656 L 303.746094 82.222656 Z M 303.746094 2 " clip-rule="nonzero"/></clipPath><clipPath id="id7"><path d="M 0.164062 0 L 78 0 L 78 78 L 0.164062 78 Z M 0.164062 0 " clip-rule="nonzero"/></clipPath><clipPath id="id8"><path d="M 0.164062 0 L 80.414062 0 L 80.414062 80.25 L 0.164062 80.25 Z M 0.164062 0 " clip-rule="nonzero"/></clipPath></defs><g clip-path="url(#id1)"><path fill="#ffffff" d="M 71.554688 321.542969 L 66.464844 335 L 71.160156 345.402344 L 60.75 350.101562 L 54.054688 367.824219 L 62.640625 376.128906 L 61.855469 376.933594 L 39.632812 355.441406 L 26.800781 367.101562 L 26.046875 366.273438 L 39.667969 353.90625 L 53.175781 366.972656 L 59.710938 349.703125 L 55.011719 339.296875 L 65.425781 334.59375 L 70.511719 321.144531 Z M 68.789062 309.875 L 69.1875 310.925781 L 75.234375 308.632812 L 72.945312 314.695312 L 73.996094 315.089844 L 77.164062 306.714844 Z M 30.699219 370.925781 L 31.453125 371.757812 L 39.5 364.453125 L 52.410156 376.941406 L 53.195312 376.136719 L 39.523438 362.910156 Z M 17.671875 382.75 L 1.121094 382.75 L 1.121094 366.199219 L 8.558594 358.007812 L 7.726562 357.253906 L 0 365.761719 L 0 383.875 L 18.105469 383.875 L 26.617188 376.148438 L 25.863281 375.316406 Z M 12.949219 353.171875 L 20.960938 344.347656 L 7.78125 330.726562 L 6.976562 331.515625 L 19.425781 344.371094 L 12.121094 352.417969 Z M 16.765625 357.070312 L 17.597656 357.824219 L 29.96875 344.207031 L 16.898438 330.699219 L 34.167969 324.167969 L 44.578125 328.867188 L 49.28125 318.453125 L 62.730469 313.367188 L 62.332031 312.316406 L 48.875 317.40625 L 38.472656 312.710938 L 33.773438 323.117188 L 16.050781 329.820312 L 7.746094 321.234375 L 6.9375 322.019531 L 28.433594 344.242188 Z M 6.570312 377.300781 L 15.566406 377.300781 L 21.964844 371.496094 L 21.210938 370.664062 L 15.132812 376.179688 L 7.695312 376.179688 L 7.695312 368.738281 L 13.210938 362.664062 L 12.378906 361.910156 L 6.570312 368.308594 Z M 6.570312 377.300781 " fill-opacity="1" fill-rule="nonzero"/></g><g clip-path="url(#id2)"><path fill="#ffffff" d="M 63.023438 320.851562 L 80.289062 320.851562 L 80.289062 321.972656 L 61.902344 321.972656 L 61.902344 303.582031 L 63.023438 303.582031 Z M 69.546875 314.324219 L 69.546875 303.582031 L 68.425781 303.582031 L 68.425781 315.449219 L 80.289062 315.449219 L 80.289062 314.324219 Z M 7.847656 347.367188 L 7.847656 303.582031 L 6.726562 303.582031 L 6.726562 347.832031 L 36.042969 377.132812 L 80.289062 377.132812 L 80.289062 376.007812 L 36.507812 376.007812 Z M 1.324219 350.027344 L 1.324219 303.582031 L 0.203125 303.582031 L 0.203125 350.492188 L 33.382812 383.671875 L 80.289062 383.671875 L 80.289062 382.546875 L 33.847656 382.546875 Z M 1.324219 350.027344 " fill-opacity="1" fill-rule="nonzero"/></g><g clip-path="url(#id3)"><path fill="#ffffff" d="M 321.542969 314.25 L 335 319.339844 L 345.402344 314.648438 L 350.101562 325.054688 L 367.824219 331.753906 L 376.128906 323.164062 L 376.933594 323.949219 L 355.441406 346.171875 L 367.101562 359.003906 L 366.273438 359.757812 L 353.90625 346.136719 L 366.972656 332.632812 L 349.703125 326.09375 L 339.296875 330.796875 L 334.59375 320.382812 L 321.144531 315.292969 Z M 309.875 317.015625 L 310.925781 316.621094 L 308.632812 310.570312 L 314.695312 312.859375 L 315.089844 311.808594 L 306.714844 308.640625 Z M 370.925781 355.105469 L 371.757812 354.351562 L 364.453125 346.304688 L 376.941406 333.398438 L 376.136719 332.613281 L 362.910156 346.28125 Z M 382.75 368.132812 L 382.75 384.683594 L 366.199219 384.683594 L 358.007812 377.25 L 357.253906 378.082031 L 365.761719 385.804688 L 383.875 385.804688 L 383.875 367.699219 L 376.148438 359.191406 L 375.316406 359.945312 Z M 353.171875 372.855469 L 344.347656 364.84375 L 330.726562 378.023438 L 331.515625 378.832031 L 344.371094 366.382812 L 352.417969 373.683594 Z M 357.070312 369.039062 L 357.824219 368.210938 L 344.207031 355.839844 L 330.699219 368.90625 L 324.167969 351.636719 L 328.867188 341.226562 L 318.453125 336.527344 L 313.367188 323.078125 L 312.316406 323.472656 L 317.40625 336.929688 L 312.710938 347.332031 L 323.117188 352.035156 L 329.820312 369.753906 L 321.234375 378.0625 L 322.019531 378.867188 L 344.242188 357.371094 Z M 377.300781 379.234375 L 377.300781 370.238281 L 371.496094 363.839844 L 370.664062 364.59375 L 376.179688 370.671875 L 376.179688 378.113281 L 368.738281 378.113281 L 362.664062 372.597656 L 361.910156 373.425781 L 368.308594 379.234375 Z M 377.300781 379.234375 " fill-opacity="1" fill-rule="nonzero"/></g><g clip-path="url(#id4)"><path fill="#ffffff" d="M 320.851562 322.78125 L 320.851562 305.515625 L 321.972656 305.515625 L 321.972656 323.90625 L 303.582031 323.90625 L 303.582031 322.78125 Z M 314.324219 316.257812 L 303.582031 316.257812 L 303.582031 317.378906 L 315.449219 317.378906 L 315.449219 305.515625 L 314.324219 305.515625 Z M 347.367188 377.957031 L 303.582031 377.957031 L 303.582031 379.078125 L 347.832031 379.078125 L 377.132812 349.765625 L 377.132812 305.515625 L 376.007812 305.515625 L 376.007812 349.300781 Z M 350.027344 384.480469 L 303.582031 384.480469 L 303.582031 385.601562 L 350.492188 385.601562 L 383.671875 352.421875 L 383.671875 305.515625 L 382.546875 305.515625 L 382.546875 351.957031 Z M 350.027344 384.480469 " fill-opacity="1" fill-rule="nonzero"/></g><g clip-path="url(#id5)"><path fill="#ffffff" d="M 312.441406 64.265625 L 317.53125 50.808594 L 312.839844 40.40625 L 323.246094 35.707031 L 329.945312 17.980469 L 321.355469 9.675781 L 322.140625 8.871094 L 344.367188 30.367188 L 357.195312 18.703125 L 357.949219 19.535156 L 344.328125 31.902344 L 330.824219 18.832031 L 324.285156 36.101562 L 328.988281 46.507812 L 318.574219 51.210938 L 313.488281 64.660156 Z M 315.210938 75.929688 L 314.8125 74.878906 L 308.761719 77.171875 L 311.050781 71.109375 L 310 70.714844 L 306.832031 79.089844 Z M 353.296875 14.878906 L 352.542969 14.050781 L 344.496094 21.355469 L 331.589844 8.863281 L 330.804688 9.667969 L 344.472656 22.894531 Z M 366.324219 3.054688 L 382.875 3.054688 L 382.875 19.605469 L 375.441406 27.796875 L 376.273438 28.550781 L 383.996094 20.042969 L 383.996094 1.933594 L 365.890625 1.933594 L 357.382812 9.660156 L 358.136719 10.488281 Z M 371.046875 32.632812 L 363.035156 41.457031 L 376.214844 55.078125 L 377.023438 54.292969 L 364.574219 41.433594 L 371.875 33.386719 Z M 367.230469 28.734375 L 366.402344 27.980469 L 354.03125 41.601562 L 367.097656 55.105469 L 349.828125 61.636719 L 339.421875 56.9375 L 334.71875 67.351562 L 321.269531 72.4375 L 321.667969 73.488281 L 335.121094 68.398438 L 345.523438 73.09375 L 350.226562 62.6875 L 367.949219 55.984375 L 376.253906 64.574219 L 377.058594 63.789062 L 355.5625 41.5625 Z M 377.425781 8.503906 L 368.429688 8.503906 L 362.03125 14.3125 L 362.785156 15.140625 L 368.863281 9.625 L 376.304688 9.625 L 376.304688 17.066406 L 370.789062 23.140625 L 371.617188 23.894531 L 377.425781 17.496094 Z M 377.425781 8.503906 " fill-opacity="1" fill-rule="nonzero"/></g><g clip-path="url(#id6)"><path fill="#ffffff" d="M 320.972656 64.957031 L 303.707031 64.957031 L 303.707031 63.832031 L 322.097656 63.832031 L 322.097656 82.222656 L 320.972656 82.222656 Z M 314.449219 71.480469 L 314.449219 82.222656 L 315.570312 82.222656 L 315.570312 70.359375 L 303.707031 70.359375 L 303.707031 71.480469 Z M 376.148438 38.441406 L 376.148438 82.222656 L 377.269531 82.222656 L 377.269531 37.976562 L 347.957031 8.675781 L 303.707031 8.675781 L 303.707031 9.796875 L 347.492188 9.796875 Z M 382.671875 35.78125 L 382.671875 82.222656 L 383.792969 82.222656 L 383.792969 35.316406 L 350.613281 2.136719 L 303.707031 2.136719 L 303.707031 3.257812 L 350.148438 3.257812 Z M 382.671875 35.78125 " fill-opacity="1" fill-rule="nonzero"/></g><g clip-path="url(#id7)"><path fill="#fffdf9" d="M 62.457031 71.554688 L 49 66.464844 L 38.597656 71.160156 L 33.898438 60.75 L 16.171875 54.054688 L 7.867188 62.640625 L 7.0625 61.855469 L 28.558594 39.632812 L 16.894531 26.800781 L 17.726562 26.046875 L 30.09375 39.667969 L 17.023438 53.175781 L 34.292969 59.710938 L 44.699219 55.011719 L 49.402344 65.425781 L 62.851562 70.511719 Z M 74.121094 68.789062 L 73.070312 69.1875 L 75.363281 75.234375 L 69.300781 72.945312 L 68.90625 73.996094 L 77.28125 77.164062 Z M 13.070312 30.699219 L 12.242188 31.453125 L 19.546875 39.5 L 7.054688 52.410156 L 7.863281 53.195312 L 21.085938 39.523438 Z M 1.246094 17.671875 L 1.246094 1.121094 L 17.796875 1.121094 L 25.988281 8.558594 L 26.746094 7.726562 L 18.234375 0 L 0.125 0 L 0.125 18.105469 L 7.851562 26.617188 L 8.679688 25.863281 Z M 30.824219 12.949219 L 39.648438 20.960938 L 53.269531 7.78125 L 52.484375 6.976562 L 39.625 19.425781 L 31.578125 12.121094 Z M 26.925781 16.765625 L 26.171875 17.597656 L 39.792969 29.96875 L 53.296875 16.898438 L 59.828125 34.167969 L 55.128906 44.578125 L 65.542969 49.28125 L 70.628906 62.730469 L 71.679688 62.332031 L 66.589844 48.875 L 71.285156 38.472656 L 60.878906 33.773438 L 54.175781 16.050781 L 62.765625 7.746094 L 61.980469 6.9375 L 39.757812 28.433594 Z M 6.695312 6.570312 L 6.695312 15.566406 L 12.503906 21.964844 L 13.332031 21.210938 L 7.820312 15.132812 L 7.820312 7.695312 L 15.257812 7.695312 L 21.332031 13.210938 L 22.085938 12.378906 L 15.6875 6.570312 Z M 6.695312 6.570312 " fill-opacity="1" fill-rule="nonzero"/></g><g clip-path="url(#id8)"><path fill="#fffdf9" d="M 63.148438 63.023438 L 63.148438 80.289062 L 62.023438 80.289062 L 62.023438 61.902344 L 80.414062 61.902344 L 80.414062 63.023438 Z M 69.671875 69.546875 L 80.414062 69.546875 L 80.414062 68.425781 L 68.550781 68.425781 L 68.550781 80.289062 L 69.671875 80.289062 Z M 36.632812 7.847656 L 80.414062 7.847656 L 80.414062 6.726562 L 36.167969 6.726562 L 6.867188 36.042969 L 6.867188 80.289062 L 7.988281 80.289062 L 7.988281 36.507812 Z M 33.972656 1.324219 L 80.414062 1.324219 L 80.414062 0.203125 L 33.507812 0.203125 L 0.328125 33.382812 L 0.328125 80.289062 L 1.449219 80.289062 L 1.449219 33.847656 Z M 33.972656 1.324219 " fill-opacity="1" fill-rule="nonzero"/></g></svg>